<svg width="34" height="34" viewBox="0 0 34 34" fill="none" xmlns="http://www.w3.org/2000/svg">
<circle cx="17" cy="17" r="17" fill="#37756C"/>
<path d="M13.034 23V21.4773L17.0738 17.5171C17.4601 17.1269 17.7821 16.7803 18.0397 16.4773C18.2973 16.1743 18.4904 15.8807 18.6192 15.5966C18.748 15.3125 18.8124 15.0095 18.8124 14.6875C18.8124 14.3201 18.7291 14.0057 18.5624 13.7443C18.3957 13.4792 18.1666 13.2746 17.8749 13.1307C17.5832 12.9868 17.2518 12.9148 16.8806 12.9148C16.498 12.9148 16.1628 12.9943 15.8749 13.1534C15.587 13.3087 15.3635 13.5303 15.2045 13.8182C15.0492 14.1061 14.9715 14.4489 14.9715 14.8466H12.9658C12.9658 14.108 13.1344 13.4659 13.4715 12.9205C13.8086 12.375 14.2726 11.9527 14.8635 11.6534C15.4582 11.3542 16.1401 11.2046 16.909 11.2046C17.6893 11.2046 18.3749 11.3504 18.9658 11.6421C19.5567 11.9337 20.0151 12.3333 20.3408 12.8409C20.6704 13.3485 20.8351 13.928 20.8351 14.5796C20.8351 15.0152 20.7518 15.4432 20.5851 15.8637C20.4185 16.2841 20.1249 16.75 19.7045 17.2614C19.2878 17.7727 18.7026 18.3921 17.9488 19.1193L15.9431 21.1591V21.2387H21.0113V23H13.034Z" fill="white"/>
</svg>
