<svg width="34" height="34" viewBox="0 0 34 34" fill="none" xmlns="http://www.w3.org/2000/svg">
<circle cx="17" cy="17" r="17" fill="#37756C"/>
<path d="M17.267 23.1591C16.4489 23.1591 15.7216 23.019 15.0852 22.7387C14.4527 22.4583 13.9527 22.0682 13.5852 21.5682C13.2178 21.0682 13.0227 20.4905 13 19.8352H15.1364C15.1553 20.1496 15.2595 20.4243 15.4489 20.6591C15.6383 20.8902 15.8902 21.0701 16.2045 21.1989C16.5189 21.3277 16.8712 21.3921 17.2614 21.3921C17.678 21.3921 18.0473 21.3201 18.3693 21.1762C18.6913 21.0284 18.9432 20.8239 19.125 20.5625C19.3068 20.3012 19.3958 20 19.392 19.6591C19.3958 19.3068 19.3049 18.9962 19.1193 18.7273C18.9337 18.4583 18.6648 18.2481 18.3125 18.0966C17.964 17.9451 17.5436 17.8693 17.0511 17.8693H16.0227V16.2443H17.0511C17.4564 16.2443 17.8106 16.1743 18.1136 16.0341C18.4205 15.894 18.661 15.697 18.8352 15.4432C19.0095 15.1856 19.0947 14.8883 19.0909 14.5512C19.0947 14.2216 19.0208 13.9356 18.8693 13.6932C18.7216 13.447 18.5114 13.2557 18.2386 13.1193C17.9697 12.983 17.6534 12.9148 17.2898 12.9148C16.9337 12.9148 16.6042 12.9792 16.3011 13.108C15.9981 13.2368 15.7538 13.4205 15.5682 13.6591C15.3826 13.894 15.2841 14.1743 15.2727 14.5H13.2443C13.2595 13.8485 13.447 13.2765 13.8068 12.7841C14.1705 12.2879 14.6553 11.9015 15.2614 11.625C15.8674 11.3447 16.5473 11.2046 17.3011 11.2046C18.0777 11.2046 18.7519 11.3504 19.3239 11.6421C19.8996 11.9299 20.3447 12.3182 20.6591 12.8068C20.9735 13.2955 21.1307 13.8352 21.1307 14.4262C21.1345 15.0815 20.9413 15.6307 20.5511 16.0739C20.1648 16.5171 19.6572 16.8068 19.0284 16.9432V17.0341C19.8466 17.1477 20.4735 17.4508 20.9091 17.9432C21.3485 18.4318 21.5663 19.0398 21.5625 19.7671C21.5625 20.4186 21.3769 21.0019 21.0057 21.5171C20.6383 22.0284 20.1307 22.4299 19.483 22.7216C18.839 23.0133 18.1004 23.1591 17.267 23.1591Z" fill="white"/>
</svg>
