<svg width="24" height="14" viewBox="0 0 24 16" fill="none" xmlns="http://www.w3.org/2000/svg">
<path d="M5.99896 1.59604C5.99896 1.40515 6.07798 1.22208 6.21865 1.0871C6.35931 0.952114 6.55009 0.876282 6.74902 0.876282H8.99919C9.19812 0.876282 9.3889 0.952114 9.52956 1.0871C9.67023 1.22208 9.74925 1.40515 9.74925 1.59604C9.74925 1.78694 9.67023 1.97001 9.52956 2.10499C9.3889 2.23997 9.19812 2.31581 8.99919 2.31581V3.03557H15.2097L15.7887 1.3686C15.8384 1.22533 15.9339 1.10071 16.0615 1.01235C16.1891 0.923999 16.3424 0.876396 16.4998 0.876282H17.9999C18.1988 0.876282 18.3896 0.952114 18.5303 1.0871C18.6709 1.22208 18.75 1.40515 18.75 1.59604C18.75 1.78694 18.6709 1.97001 18.5303 2.10499C18.3896 2.23997 18.1988 2.31581 17.9999 2.31581H17.0398L16.5733 3.66176L17.7839 5.51875C18.8271 5.10591 19.9938 5.08421 21.0529 5.45793C22.112 5.83166 22.9861 6.57355 23.502 7.53657C24.018 8.49959 24.1381 9.61347 23.8386 10.6575C23.539 11.7015 22.8417 12.5994 21.8848 13.1733C20.9279 13.7472 19.7813 13.9552 18.6721 13.7561C17.5629 13.557 16.5722 12.9652 15.8962 12.0982C15.2202 11.2312 14.9083 10.1521 15.0223 9.07479C15.1363 7.9975 15.6679 7.00061 16.5118 6.28169L15.7497 5.1128L12.6355 9.8949C12.5681 9.99842 12.4743 10.0838 12.363 10.143C12.2518 10.2021 12.1266 10.2332 11.9994 10.2332H8.93769C8.78212 11.1159 8.34451 11.9304 7.68542 12.564C7.02633 13.1976 6.17833 13.619 5.25874 13.7698C4.33915 13.9207 3.39343 13.7936 2.55242 13.4061C1.71141 13.0186 1.01669 12.3899 0.564357 11.6069C0.112027 10.8239 -0.075546 9.92538 0.0275883 9.03562C0.130723 8.14586 0.519466 7.30885 1.14004 6.64039C1.76061 5.97192 2.58233 5.50505 3.49152 5.30437C4.4007 5.10368 5.35241 5.1791 6.21498 5.52019L7.49908 3.54804V2.31581H6.74902C6.55009 2.31581 6.35931 2.23997 6.21865 2.10499C6.07798 1.97001 5.99896 1.78694 5.99896 1.59604ZM8.24914 5.1128L7.48708 6.28457C8.23713 6.92372 8.76218 7.80183 8.93769 8.79366H10.6463L8.24914 5.1128ZM11.9994 8.15595L14.3966 4.47509H9.60224L11.9994 8.15595ZM7.40457 8.79366C7.27677 8.32012 7.02534 7.88563 6.67401 7.5312L5.85195 8.79366H7.40457ZM5.40341 6.76681C4.83114 6.59339 4.21781 6.58864 3.6427 6.75319C3.06758 6.91774 2.55711 7.24401 2.17724 7.68985C1.79737 8.13569 1.56556 8.68061 1.51177 9.25418C1.45799 9.82776 1.58469 10.4036 1.87551 10.9074C2.16633 11.4111 2.6079 11.8196 3.14317 12.0801C3.67843 12.3405 4.28278 12.4409 4.87813 12.3683C5.47348 12.2957 6.03246 12.0534 6.48283 11.6728C6.93321 11.2922 7.25428 10.7907 7.40457 10.2332H4.49884C4.36495 10.2332 4.23351 10.1988 4.11814 10.1336C4.00278 10.0684 3.90772 9.97472 3.84281 9.86234C3.7779 9.74997 3.74553 9.62297 3.74904 9.49453C3.75256 9.3661 3.79183 9.2409 3.86279 9.13195L5.40341 6.76681ZM17.3248 7.52976C16.822 8.03792 16.5296 8.70461 16.5024 9.40486C16.4751 10.1051 16.715 10.7909 17.177 11.3335C17.6389 11.8762 18.2913 12.2386 19.0118 12.3528C19.7323 12.4669 20.4714 12.325 21.0906 11.9536C21.7099 11.5822 22.1667 11.0069 22.3755 10.3354C22.5843 9.66389 22.5307 8.94238 22.2248 8.30609C21.9189 7.6698 21.3816 7.16242 20.7138 6.87905C20.0459 6.59568 19.2933 6.55577 18.5969 6.76681L20.1361 9.13195C20.1883 9.2121 20.2235 9.30134 20.2398 9.39456C20.256 9.48779 20.253 9.58317 20.2309 9.67527C20.2087 9.76737 20.1679 9.85438 20.1107 9.93134C20.0535 10.0083 19.9811 10.0737 19.8975 10.1238C19.814 10.1739 19.721 10.2077 19.6239 10.2233C19.5267 10.2389 19.4273 10.236 19.3314 10.2148C19.2354 10.1935 19.1447 10.1543 19.0645 10.0994C18.9843 10.0446 18.9162 9.97505 18.864 9.8949L17.3248 7.52976Z" fill="#37756C"/>
</svg>
