<?xml version="1.0" encoding="UTF-8"?>
<svg id="Layer_1" data-name="Layer 1" xmlns="http://www.w3.org/2000/svg" version="1.1" viewBox="271.72 373.51 1376.55 332.99">   <defs>     <style>       .cls-1 {         fill: #f9f9fa;       }        .cls-1, .cls-2 {         stroke-width: 0px;       }        .cls-2 {         fill: #DDE56A;       }       .cls-3 {         fill: #DDE56A;       }     </style>   </defs>   <g>     <path class="cls-1" d="M271.72,505.44c0-69.82,56.61-126.43,126.43-126.43,18.82,0,36.64,4.13,52.49,11.39,4.29,1.98,6.11,5.12,6.11,9.74v44.24c0,7.1-3.96,8.75-9.57,3.96-13.04-11.39-30.37-18.16-49.02-18.16-41.59,0-75.43,33.51-75.43,75.26s33.84,75.43,75.43,75.43c18.65,0,35.98-6.77,49.19-18.16,5.45-4.79,9.41-3.3,9.41,3.8v44.24c0,4.62-1.65,7.76-5.61,9.57-16.18,7.26-34.17,11.55-52.98,11.55-69.82,0-126.43-56.61-126.43-126.43Z"></path>     <path class="cls-1" d="M667.39,565.85v-93.42c0-5.28,2.97-8.25,8.25-8.25h33.01c5.28,0,8.25,2.97,8.25,8.25v90.61c0,9.08,7.43,16.51,16.51,16.51h8.25c5.28,0,8.25-2.97,8.25-8.25v-98.87c0-5.28,2.97-8.25,8.25-8.25h33.01c5.28,0,8.25,2.97,8.25,8.25v148.55c0,5.28-2.97,8.25-8.25,8.25h-57.77c-36.48,0-66.02-26.9-66.02-63.38Z"></path>     <path class="cls-1" d="M887.58,464.18h8.25c5.28,0,8.25,2.97,8.25,8.25v33.18c0,5.28-2.97,8.25-8.25,8.25h-8.25c-9.08,0-16.51,7.43-16.51,16.51v90.61c0,5.28-2.97,8.25-8.25,8.25h-33.01c-5.28,0-8.25-2.97-8.25-8.25v-93.42c0-36.48,29.54-63.38,66.02-63.38Z"></path>     <path class="cls-1" d="M1009.17,629.23c-36.48,0-66.02-26.9-66.02-63.38v-47.21c0-5.28-2.97-8.25-8.25-8.25s-8.25-2.97-8.25-8.25v-29.71c0-5.28,2.97-8.25,8.25-8.25s8.25-2.97,8.25-8.25v-33.01c0-5.28,2.97-8.25,8.25-8.25h33.01c5.28,0,8.25,2.97,8.25,8.25v33.01c0,5.28,2.97,8.25,8.25,8.25h16.5c5.28,0,8.25,2.97,8.25,8.25v29.71c0,5.28-2.97,8.25-8.25,8.25h-16.5c-5.28,0-8.25,2.97-8.25,8.25v44.4c0,9.08,7.43,16.51,16.5,16.51h8.25c5.28,0,8.25,2.97,8.25,8.25v33.18c0,5.28-2.97,8.25-8.25,8.25h-8.09s-.17-.16-.17,0Z"></path>     <g>       <path class="cls-2" d="M521.4,555.58c9.11,20.32,11.29,42.53,6.32,64.24l-1.1,4.78c-1.46-.65-2.9-1.34-4.31-2.07-27.53-14.1-46.37-42.76-46.37-75.82,0-6.75.79-13.32,2.27-19.61,1.27-5.4,3.05-10.6,5.3-15.54,16.7,10.67,29.72,25.77,37.89,44.02Z"></path>       <path class="cls-2" d="M641.16,573.44l.73.31h0c-11.3,33.78-43.2,58.12-80.78,58.12-8.01,0-15.77-1.11-23.12-3.18l1.42-6.19c5.56-24.27,3.12-49.11-7.05-71.83-9.26-20.67-24.09-37.73-43.12-49.69,15.12-23.71,41.66-39.44,71.87-39.44,3.91,0,7.75.26,11.52.77-1.35,22.02,3.69,43.67,14.72,63.03,12.33,21.63,30.94,38.26,53.81,48.1Z"></path>       <path class="cls-2" d="M646.28,546.71c0,.5,0,1.01-.02,1.51-.07,4.69-.54,9.29-1.35,13.76-20.01-8.84-36.29-23.55-47.14-42.59-9.57-16.78-14.09-35.5-13.25-54.59,5.92,1.68,11.57,4,16.89,6.86,26.71,14.37,44.87,42.59,44.87,75.05Z"></path>     </g>   </g>   <path class="cls-3" d="M293.67,702.5v-15.21c0-2.56,2.94-4,8.17-4h1338.26c5.23,0,8.17,1.44,8.17,4v15.21c0,2.56-2.94,4-8.17,4H301.85c-5.23,0-8.17-1.44-8.17-4Z"></path>   <g>     <path class="cls-1" d="M1317.11,565.95v-93.42c0-5.28,2.97-8.25,8.25-8.25h33.01c5.28,0,8.25,2.97,8.25,8.25v90.61c0,9.08,7.43,16.51,16.51,16.51h8.25c5.28,0,8.25-2.97,8.25-8.25v-98.87c0-5.28,2.97-8.25,8.25-8.25h33.01c5.28,0,8.25,2.97,8.25,8.25v148.55c0,5.28-2.97,8.25-8.25,8.25h-57.77c-36.48,0-66.02-26.9-66.02-63.38Z"></path>     <path class="cls-1" d="M1471.28,546.81v-165.05c0-5.28,2.97-8.25,8.25-8.25h29.71c5.28,0,8.25,2.97,8.25,8.25v78.9c0,6.11,3.63,8.42,9.57,6.27,9.08-3.47,18.98-5.28,29.38-5.28,47.04,0,85.17,38.13,85.17,85.17s-38.13,85.17-85.17,85.17-85.17-38.13-85.17-85.17ZM1556.45,585.76c21.46,0,38.95-17.5,38.95-38.95s-17.49-38.95-38.95-38.95-38.95,17.49-38.95,38.95,17.49,38.95,38.95,38.95Z"></path>     <g>       <path class="cls-1" d="M1294.43,546.52v75.26c-.07.89-.24,1.69-.5,2.41-1.08,3.06-3.75,4.73-7.7,4.73h-33.01c-4.23,0-6.98-1.91-7.89-5.38v-.03l-.02-33.2c3.06-1.24,6.05-2.63,8.94-4.16,1.27-.67,2.46-1.34,3.59-1.99.03-.02.07-.03.12-.07.72-.43,1.55-.89,2.42-1.48,1.43-.86,2.77-1.77,3.99-2.61.14-.1.29-.21.43-.31,2.3-1.62,4.44-3.27,6.48-4.99.07-.05.12-.1.19-.15,2.06-1.72,4.16-3.65,6.22-5.67,6.65-6.6,12.28-14.17,16.73-22.34Z"></path>       <path class="cls-1" d="M1294.43,389.07v110.63c0,7.1-.88,14.1-2.6,20.89v.02c-3.77,14.91-11.5,28.66-22.61,39.68-1.82,1.81-3.7,3.52-5.64,5.14,0,.02-.02.03-.03.03-1.94,1.63-3.94,3.15-5.98,4.57-.02.02-.02.03-.03.03-1.17.81-2.34,1.6-3.54,2.32-.7.46-1.41.88-2.11,1.29-1.08.62-2.17,1.24-3.27,1.82-1.08.58-2.18,1.13-3.3,1.65-.12.05-.22.1-.34.15-3.27,1.53-6.6,2.85-10.01,3.94-.57.19-1.12.36-1.69.52-.76.24-1.53.46-2.3.67-1.34.36-2.68.69-4.02.98-1.34.29-2.7.57-4.06.79-3.61.62-7.27,1-10.94,1.13-5.95.24-11.93-.14-17.81-1.13-1.36-.22-2.72-.5-4.06-.79-1.34-.29-2.7-.62-4.02-.98-.77-.21-1.53-.43-2.29-.65v-41.25c.12-4.02,1.22-7.82,3.08-11.16,2.08,1.53,4.33,2.84,6.71,3.9.93.41,1.86.79,2.82,1.12.95.34,1.93.64,2.92.89,2.94.76,6.02,1.15,9.2,1.15,1.17,0,2.32-.05,3.46-.17,2.6-.22,5.09-.74,7.5-1.48,2.82-.88,5.48-2.08,7.96-3.56.96-.58,1.91-1.2,2.82-1.89,1.41-1.01,2.75-2.15,4.01-3.37.7-.67,1.36-1.36,1.98-2.06t0-.02c.83-.95,1.6-1.93,2.3-2.96.14-.15.24-.31.34-.46,4.08-5.93,6.46-13.12,6.46-20.86l-.02-35.59v-13.14l-.02-63.36c0-.17-.02-.36-.04-.53,0-.07.02-.12.04-.17.89-3.54,3.66-5.49,7.93-5.49h33.01c3.94,0,6.59,1.65,7.69,4.69.26.69.43,1.46.5,2.3.02.24.02.5.02.74Z"></path>       <path class="cls-1" d="M1233.27,459.39l.02,40.22c0,4.21-1.07,8.34-3.08,11.97-6.07-4.45-13.57-7.08-21.68-7.08h-.03c-8.1,0-15.59,2.63-21.66,7.07-3.37,2.46-6.31,5.47-8.65,8.91-.17.24-.33.48-.48.72-2.53,3.83-4.33,8.15-5.26,12.79-.41,2.08-.65,4.21-.71,6.4v49.92l-.02,34.25c-1.14,2.84-3.73,4.37-7.53,4.37h-33.01c-5.28,0-8.25-2.97-8.25-8.25v-86.44c.38-4.63,1.15-9.18,2.27-13.64,3.77-14.91,11.5-28.66,22.58-39.7.81-.81,1.63-1.6,2.48-2.36,6.41-5.93,13.65-10.82,21.48-14.51.24-.12.48-.22.72-.33,3.66-1.7,7.45-3.13,11.31-4.32,2.1-.62,4.21-1.17,6.34-1.65,5.06-1.12,10.2-1.77,15.35-1.94.93-.03,1.87-.05,2.8-.05h.52c6.1,0,12.19.67,18.16,1.99,2.15.48,4.26,1.03,6.34,1.67Z"></path>       <path class="cls-1" d="M1171.84,385.94c-.05.67-.09,1.34-.1,2.03l-.02,62.9c-10.88,4.42-20.93,10.76-29.59,18.76-.93.84-1.86,1.74-2.87,2.75-6.46,6.43-11.95,13.76-16.33,21.68v-104.47c0-5.28,2.97-8.25,8.25-8.25h33.01c3.9,0,6.53,1.62,7.65,4.61Z"></path>     </g>   </g> </svg>