<svg width="16" height="17" viewBox="0 0 16 17" fill="none" xmlns="http://www.w3.org/2000/svg">
<path fill-rule="evenodd" clip-rule="evenodd" d="M8 15.2437C11.5346 15.2437 14.4 12.3627 14.4 8.80873C14.4 5.25479 11.5346 2.37376 8 2.37376C4.46538 2.37376 1.6 5.25479 1.6 8.80873C1.6 12.3627 4.46538 15.2437 8 15.2437ZM8 16.8524C12.4183 16.8524 16 13.2512 16 8.80873C16 4.36631 12.4183 0.765015 8 0.765015C3.58172 0.765015 0 4.36631 0 8.80873C0 13.2512 3.58172 16.8524 8 16.8524ZM12.6857 8.00436C13.1907 8.00436 13.6 8.36449 13.6 8.80873C13.6 9.25297 13.1907 9.6131 12.6857 9.6131H8.11429C8.09329 9.6131 8.07246 9.61248 8.05181 9.61125C8.03468 9.61248 8.01741 9.6131 8 9.6131C7.64924 9.6131 7.35121 9.35963 7.24325 9.0539C7.21516 8.97661 7.2 8.89423 7.2 8.80873V5.59124C7.2 5.18906 7.55817 4.78687 8 4.78687C8.44183 4.78687 8.8 5.18906 8.8 5.59124V8.00436H12.6857Z" fill="#2A534D"/>
</svg>
