<?xml version="1.0" encoding="UTF-8"?>
<svg id="Layer_1" data-name="Layer 1" xmlns="http://www.w3.org/2000/svg" version="1.1" viewBox="0 0 225 225">
  <defs>
    <style>
      
    </style>
  </defs>
  <path d="M205.68,23.6H19.32C8.67,23.6,0,32.27,0,42.93v139.15c0,10.65,8.66,19.32,19.32,19.32h186.36c10.65,0,19.32-8.67,19.32-19.32V42.93c0-10.65-8.67-19.32-19.32-19.32ZM117,166.04v-49.05h36.34v49.05h-36.34ZM11.99,166.04V58.95h50.67v107.09H11.99ZM108,58.95v49.05h-36.35v-49.05h36.35ZM153.34,108h-36.35v-49.05h36.34v49.05h0ZM71.66,116.99h36.35v49.05h-36.35v-49.05ZM162.34,58.95h50.67v107.09h-50.67V58.95ZM213.01,42.93v7.04h-96.01v-14.37h88.68c4.05,0,7.34,3.29,7.34,7.33ZM19.32,35.59h88.68v14.36H11.99v-7.03c0-4.04,3.29-7.33,7.33-7.33ZM11.99,182.07v-7.04h96.01v14.36H19.32c-4.04,0-7.33-3.29-7.33-7.33ZM205.68,189.4h-88.68v-14.36h96.01v7.04c0,4.03-3.29,7.33-7.33,7.33Z"/>
</svg>