<svg width="206" height="192" viewBox="0 0 206 192" fill="none" xmlns="http://www.w3.org/2000/svg">
<g clip-path="url(#clip0_88_1213)">
<rect width="206" height="192" fill="white"/>
<rect width="206" height="192" rx="4" fill="#DBF2EE"/>
<circle cx="38" cy="47" r="25" fill="white"/>
<rect x="73" y="33" width="121" height="10" rx="4" fill="white"/>
<rect x="16" y="91" width="81" height="10" rx="4" fill="white"/>
<rect x="16" y="109" width="30" height="10" rx="4" fill="white"/>
<rect x="52" y="109" width="30" height="10" rx="4" fill="white"/>
<rect x="88" y="109" width="30" height="10" rx="4" fill="white"/>
<rect x="124" y="109" width="30" height="10" rx="4" fill="white"/>
<rect x="160" y="109" width="30" height="10" rx="4" fill="white"/>
<rect x="16" y="136" width="174" height="36" rx="4" fill="white"/>
<rect x="73" y="51" width="121" height="10" rx="4" fill="white"/>
<path fill-rule="evenodd" clip-rule="evenodd" d="M55.2696 65.3339C57.7729 62.9818 59.7671 60.1412 61.129 56.9877C62.4909 53.8342 63.1915 50.435 63.1875 47C63.1875 33.0887 51.9113 21.8125 38 21.8125C24.0888 21.8125 12.8125 33.0887 12.8125 47C12.8085 50.435 13.5092 53.8342 14.871 56.9877C16.2329 60.1412 18.2272 62.9818 20.7304 65.3339C25.3984 69.7434 31.5787 72.1961 38 72.1875C44.4213 72.1961 50.6017 69.7434 55.2696 65.3339ZM22.8746 62.0143C24.6883 59.7452 26.9899 57.9139 29.6084 56.6563C32.2269 55.3987 35.0951 54.7471 38 54.75C40.9049 54.7471 43.7731 55.3987 46.3916 56.6563C49.0102 57.9139 51.3117 59.7452 53.1254 62.0143C51.1467 64.0131 48.7907 65.599 46.1943 66.6801C43.5978 67.7613 40.8126 68.3161 38 68.3125C35.1875 68.3161 32.4022 67.7613 29.8058 66.6801C27.2093 65.599 24.8534 64.0131 22.8746 62.0143ZM47.6875 39.25C47.6875 41.8193 46.6669 44.2833 44.8501 46.1001C43.0334 47.9169 40.5693 48.9375 38 48.9375C35.4307 48.9375 32.9667 47.9169 31.1499 46.1001C29.3332 44.2833 28.3125 41.8193 28.3125 39.25C28.3125 36.6807 29.3332 34.2167 31.1499 32.3999C32.9667 30.5831 35.4307 29.5625 38 29.5625C40.5693 29.5625 43.0334 30.5831 44.8501 32.3999C46.6669 34.2167 47.6875 36.6807 47.6875 39.25Z" fill="#37756C"/>
</g>
<defs>
<clipPath id="clip0_88_1213">
<rect width="206" height="192" fill="white"/>
</clipPath>
</defs>
</svg>
