<svg width="15" height="15" viewBox="0 0 15 15" fill="none" xmlns="http://www.w3.org/2000/svg">
<g clip-path="url(#clip0_209_1553)">
<path d="M7.5 3.67249L1.875 8.27498V13.75C1.875 14.095 2.155 14.375 2.5 14.375H6.25V10.9375C6.25 10.765 6.39 10.625 6.5625 10.625H8.4375C8.61 10.625 8.75 10.765 8.75 10.9375V14.375H12.5C12.845 14.375 13.125 14.095 13.125 13.75V8.27498L7.5 3.67249Z" fill="#37756C"/>
<path d="M14.3749 7.50001C14.2355 7.50001 14.0955 7.45376 13.9793 7.35876L7.49991 2.05751L1.02054 7.35876C0.753038 7.57688 0.359913 7.53813 0.141163 7.27063C-0.0775871 7.00313 -0.0382121 6.60938 0.229288 6.39126L7.10429 0.766257C7.33429 0.577507 7.66554 0.577507 7.89616 0.766257L14.7712 6.39126C15.038 6.61001 15.0774 7.00313 14.8593 7.27063C14.7355 7.42188 14.5555 7.50001 14.3749 7.50001Z" fill="#37756C"/>
</g>
<defs>
<clipPath id="clip0_209_1553">
<rect width="15" height="15" fill="white"/>
</clipPath>
</defs>
</svg>
