<svg xmlns="http://www.w3.org/2000/svg" viewBox="0 0 300 300">
  <style>
    .stroke {
      fill: #28534C;
      stroke: #28534C; /* Stroke color */
      stroke-width: 0.3; /* Stroke width */
    }
  </style>
  <path class="stroke" d="M261.466 51.3158C261.073 50.9211 260.681 50.5263 260.681 50.1316C233.199 19.3421 193.155 0 149.185 0C104.822 0 65.1702 19.3421 38.0814 50.1316C37.6888 50.5263 37.2962 50.9211 36.9036 51.3158C14.1333 77.7632 0 112.105 0 150C0 190.658 16.4888 227.763 42.7925 255C43.1851 255.395 43.1851 255.395 43.5777 255.789C43.5777 255.789 43.5777 255.789 43.9703 256.184C44.3628 256.579 44.3628 256.974 44.7554 256.974C71.8443 283.421 108.748 300 149.185 300C231.629 300 298.37 232.895 298.37 150C298.37 112.105 284.236 77.7632 261.466 51.3158ZM247.725 228.158C217.496 200.921 202.97 173.684 204.54 147.237C206.896 112.5 235.555 86.0526 250.081 74.6053C265.784 95.5263 274.814 121.579 274.814 150C274.814 179.605 264.607 206.842 247.725 228.158ZM48.2888 74.6053C63.2072 86.0526 93.8294 113.289 96.1849 149.211C98.1479 176.447 83.2294 204.079 52.6073 231.316C34.5481 209.211 23.5555 180.789 23.5555 150C23.5555 121.579 32.9777 95.5263 48.2888 74.6053ZM69.8813 247.895C105.607 215.526 122.489 181.974 120.133 147.632C116.992 103.421 83.2294 71.4474 64.385 57.2368C86.7627 36.3158 116.6 23.6842 149.185 23.6842C181.77 23.6842 211.607 36.3158 233.985 57.2368C216.318 71.4474 183.733 102.632 180.985 145.658C178.629 180 195.511 213.553 231.236 245.526C209.251 264.474 180.592 276.316 149.185 276.316C118.955 276.316 91.4738 265.658 69.8813 247.895Z" />
</svg>
