<?xml version="1.0" standalone="no"?>
<!DOCTYPE svg PUBLIC "-//W3C//DTD SVG 1.1//EN" "http://www.w3.org/Graphics/SVG/1.1/DTD/svg11.dtd"><svg xmlns="http://www.w3.org/2000/svg" style="" width="100" height="100"><path stroke="black" fill="#37756C" stroke-width="1" d="M521.4, 555.58L524.49, 563.28L526.93, 571.14L528.71, 579.11L529.84, 587.18L530.31, 595.31L530.11, 603.48L529.25, 611.66L527.72, 619.82L526.62, 624.6L522.31, 622.53L517.25, 619.72L512.41, 616.58L507.81, 613.13L503.45, 609.38L499.36, 605.36L495.54, 601.06L492.02, 596.51L488.8, 591.73L485.91, 586.72L483.35, 581.51L481.15, 576.1L479.31, 570.52L477.86, 564.78L476.8, 558.88L476.16, 552.85L475.94, 546.71L476.09, 541.68L476.52, 536.73L477.23, 531.87L478.21, 527.1L479.25, 523.12L480.48, 519.2L481.9, 515.34L483.51, 511.56L489.6, 515.77L495.33, 520.37L500.68, 525.37L505.65, 530.73L510.22, 536.45L514.38, 542.5L518.11, 548.89L521.4, 555.58"/><path stroke="black" fill="#37756C" stroke-width="1" d="M641.16, 573.44L641.89, 573.75L639.53, 579.97L636.72, 585.95L633.46, 591.66L629.79, 597.08L625.72, 602.2L621.27, 606.98L616.48, 611.42L611.36, 615.48L605.92, 619.14L600.2, 622.39L594.22, 625.19L588, 627.54L581.55, 629.4L574.91, 630.76L568.09, 631.59L561.11, 631.87L555.26, 631.67L549.44, 631.08L543.68, 630.08L537.99, 628.69L539.41, 622.5L541.12, 613.38L542.08, 604.23L542.3, 595.1L541.78, 586L540.53, 576.98L538.53, 568.07L535.81, 559.28L532.36, 550.67L528.63, 543.09L524.39, 535.87L519.66, 529.02L514.46, 522.56L508.8, 516.51L502.7, 510.88L496.18, 505.7L489.24, 500.98L492.21, 496.63L495.43, 492.48L498.9, 488.54L502.6, 484.81L506.52, 481.33L510.66, 478.08L514.99, 475.09L519.52, 472.37L524.22, 469.92L529.08, 467.77L534.1, 465.91L539.26, 464.37L544.56, 463.15L549.97, 462.26L555.49, 461.72L561.11, 461.54L566.92, 461.73L572.63, 462.31L572.42, 470.55L572.81, 478.73L573.79, 486.83L575.35, 494.82L577.49, 502.7L580.21, 510.42L583.5, 517.98L587.35, 525.34L592.26, 533.21L597.74, 540.6L603.76, 547.47L610.3, 553.81L617.33, 559.6L624.84, 564.81L632.79, 569.44L641.16, 573.44"/><path stroke="black" fill="#37756C" stroke-width="1" d="M646.28, 546.71L646.26, 548.22L645.86, 555.18L644.91, 561.98L637.58, 558.39L630.63, 554.27L624.06, 549.64L617.91, 544.51L612.18, 538.9L606.9, 532.83L602.09, 526.32L597.77, 519.39L594.42, 513.01L591.54, 506.47L589.15, 499.78L587.24, 492.96L585.82, 486.04L584.89, 479.02L584.46, 471.94L584.52, 464.8L588.91, 466.18L593.19, 467.79L597.36, 469.62L601.41, 471.66L606.32, 474.51L611.01, 477.68L615.47, 481.14L619.69, 484.88L623.65, 488.9L627.34, 493.16L630.75, 497.67L633.86, 502.4L636.66, 507.35L639.13, 512.49L641.25, 517.81L643.03, 523.31L644.43, 528.96L645.45, 534.76L646.07, 540.68L646.28, 546.71"/></svg>