<svg width="16" height="17" viewBox="0 0 16 17" fill="none" xmlns="http://www.w3.org/2000/svg">
<path d="M8 8.89619C9.06087 8.89619 10.0783 8.47246 10.8284 7.71822C11.5786 6.96397 12 5.941 12 4.87434C12 3.80767 11.5786 2.7847 10.8284 2.03045C10.0783 1.27621 9.06087 0.852478 8 0.852478C6.93913 0.852478 5.92172 1.27621 5.17157 2.03045C4.42143 2.7847 4 3.80767 4 4.87434C4 5.941 4.42143 6.96397 5.17157 7.71822C5.92172 8.47246 6.93913 8.89619 8 8.89619ZM10.6667 4.87434C10.6667 5.58544 10.3857 6.26743 9.88562 6.77026C9.38552 7.27309 8.70724 7.55557 8 7.55557C7.29276 7.55557 6.61448 7.27309 6.11438 6.77026C5.61428 6.26743 5.33333 5.58544 5.33333 4.87434C5.33333 4.16323 5.61428 3.48124 6.11438 2.97841C6.61448 2.47558 7.29276 2.1931 8 2.1931C8.70724 2.1931 9.38552 2.47558 9.88562 2.97841C10.3857 3.48124 10.6667 4.16323 10.6667 4.87434ZM16 15.5993C16 16.9399 14.6667 16.9399 14.6667 16.9399H1.33333C1.33333 16.9399 0 16.9399 0 15.5993C0 14.2587 1.33333 10.2368 8 10.2368C14.6667 10.2368 16 14.2587 16 15.5993ZM14.6667 15.5939C14.6653 15.2641 14.4613 14.2721 13.5573 13.3631C12.688 12.4891 11.052 11.5774 8 11.5774C4.948 11.5774 3.312 12.4891 2.44267 13.3631C1.53867 14.2721 1.336 15.2641 1.33333 15.5939H14.6667Z" fill="#2A534D"/>
</svg>
