<!DOCTYPE svg PUBLIC "-//W3C//DTD SVG 1.1//EN" "http://www.w3.org/Graphics/SVG/1.1/DTD/svg11.dtd">

<!-- Uploaded to: SVG Repo, www.svgrepo.com, Transformed by: SVG Repo Mixer Tools -->
<svg fill="#FF0000" width="800px" height="800px" viewBox="0 0 32 32" id="icon" xmlns="http://www.w3.org/2000/svg">

<g id="SVGRepo_bgCarrier" stroke-width="0"/>

<g id="SVGRepo_tracerCarrier" stroke-linecap="round" stroke-linejoin="round"/>

<g id="SVGRepo_iconCarrier">

<defs>

<style>.cls-1{fill:none;}</style>

</defs>

<title>windy--strong</title>

<path d="M13,30a5.0057,5.0057,0,0,1-5-5h2a3,3,0,1,0,3-3H4V20h9a5,5,0,0,1,0,10Z"/>

<path d="M25,25a5.0057,5.0057,0,0,1-5-5h2a3,3,0,1,0,3-3H2V15H25a5,5,0,0,1,0,10Z"/>

<path d="M21,12H6V10H21a3,3,0,1,0-3-3H16a5,5,0,1,1,5,5Z"/>

<rect id="_Transparent_Rectangle_" data-name="&lt;Transparent Rectangle&gt;" class="cls-1" width="32" height="32"/>

</g>

</svg>